<svg width="34" height="34" viewBox="0 0 34 34" fill="none" xmlns="http://www.w3.org/2000/svg">
<circle cx="17" cy="17" r="16" stroke="#212121"/>
<path d="M23.9967 23.9995V23.9989H24.0002V18.8645C24.0002 16.3526 23.4594 14.4177 20.523 14.4177C19.1113 14.4177 18.164 15.1924 17.7772 15.9268H17.7364V14.6522H14.9521V23.9989H17.8513V19.3708C17.8513 18.1522 18.0823 16.9739 19.5914 16.9739C21.0783 16.9739 21.1005 18.3645 21.1005 19.4489V23.9995H23.9967Z" fill="#212121"/>
<path d="M10.2314 14.6521H13.1341V23.9988H10.2314V14.6521Z" fill="#212121"/>
<path d="M11.6812 10C10.7531 10 10 10.7531 10 11.6812C10 12.6092 10.7531 13.3781 11.6812 13.3781C12.6092 13.3781 13.3623 12.6092 13.3623 11.6812C13.3617 10.7531 12.6087 10 11.6812 10V10Z" fill="#212121"/>
</svg>
