<svg width="34" height="34" viewBox="0 0 34 34" fill="none" xmlns="http://www.w3.org/2000/svg">
<circle cx="17" cy="17" r="16" stroke="#212121"/>
<path d="M7.24168 17.1666C8.87853 16.2646 10.7057 15.5117 12.4129 14.755C15.3499 13.5156 18.2987 12.2977 21.2772 11.1639C21.8566 10.9707 22.8979 10.7818 23 11.641C22.9441 12.8571 22.7141 14.0662 22.5564 15.2752C22.156 17.934 21.6931 20.5837 21.2419 23.2338C21.0864 24.1164 19.9811 24.5734 19.2739 24.0085C17.5743 22.86 15.8616 21.7226 14.1837 20.5474C13.634 19.9886 14.1438 19.1863 14.6346 18.7872C16.0344 17.407 17.519 16.2344 18.8457 14.7829C19.2036 13.9183 18.1462 14.6469 17.7974 14.8703C15.881 16.1915 14.0115 17.5934 11.991 18.7546C10.9589 19.323 9.75599 18.8372 8.72439 18.52C7.79943 18.1369 6.44403 17.7509 7.24156 17.1667L7.24168 17.1666Z" fill="#212121"/>
</svg>
