<svg width="22" height="30" viewBox="0 0 22 30" fill="none" xmlns="http://www.w3.org/2000/svg">
<path d="M19.7968 14.0843C21.1316 12.875 22 10.9958 22 8.8748V6.62354C22 2.97687 19.443 0 16.2749 0H15.9371C15.905 0 15.8728 0 15.8406 0C15.8246 0 15.8246 0 15.8085 0H1.97807C1.10965 0 0 1.0233 0 2.28847V27.257C0 28.5222 1.10965 29.5455 1.97807 29.5455H16.2749C19.4269 29.5455 22 26.5872 22 22.9219V20.6707C22 18.5496 21.1316 16.6705 19.7968 15.4611C19.4108 15.1076 19.4108 14.4378 19.7968 14.0843ZM6.15936 23.108C6.15936 24.0382 5.51608 24.7825 4.71199 24.7825C4.30994 24.7825 3.95614 24.5964 3.68275 24.2987C3.42544 24.001 3.26462 23.5731 3.26462 23.108V16.9868C3.26462 16.0565 3.9079 15.3123 4.71199 15.3123C5.11404 15.3123 5.46784 15.4983 5.74123 15.796C6.01462 16.0937 6.15936 16.5216 6.15936 16.9868V23.108ZM11.1447 23.108C11.1447 23.7033 10.8874 24.2243 10.4854 24.522C10.2602 24.6894 9.98684 24.7825 9.69737 24.7825C8.89328 24.7825 8.25 24.0382 8.25 23.108V12.2424C8.25 11.3121 8.89328 10.5679 9.69737 10.5679C10.5015 10.5679 11.1447 11.3121 11.1447 12.2424V23.108ZM16.1462 23.108C16.1462 24.0382 15.5029 24.7825 14.6988 24.7825C14.2968 24.7825 13.943 24.5964 13.6696 24.2987C13.4123 24.001 13.2515 23.5731 13.2515 23.108V7.53521C13.2515 6.60494 13.8947 5.86072 14.6988 5.86072C15.1009 5.86072 15.4547 6.04677 15.7281 6.34445C16.0015 6.64214 16.1462 7.07007 16.1462 7.53521V23.108Z" fill="white"/>
</svg>
