<svg width="34" height="34" viewBox="0 0 34 34" fill="none" xmlns="http://www.w3.org/2000/svg">
<circle cx="17" cy="17" r="16" fill="white" fill-opacity="0.2" stroke="#212121"/>
<path fill-rule="evenodd" clip-rule="evenodd" d="M23.9995 21.2941V15.563V12.7054C23.9995 11.2131 22.7859 10 21.2936 10H12.7054C11.2131 10 10 11.2131 10 12.7054V15.563V21.2941C10 22.7869 11.2131 24 12.7054 24H21.2941C22.7859 24 23.9995 22.7869 23.9995 21.2941ZM19.4642 16.9993C19.4642 18.3582 18.3572 19.4632 16.9993 19.4632C15.6409 19.4632 14.5348 18.3577 14.5363 16.9988C14.5368 16.4623 14.7108 15.9671 15.0023 15.5625C15.451 14.9418 16.1783 14.5353 17.0007 14.5353C17.8227 14.5353 18.5505 14.9423 18.9982 15.563C19.2887 15.9676 19.4642 16.4628 19.4642 16.9993ZM22.3798 13.986V11.9207V11.6133L22.071 11.6143L20.0066 11.6207L20.0145 13.994L22.3798 13.986ZM16.9998 20.8281C19.1112 20.8281 20.8286 19.1097 20.8286 16.9993C20.8286 16.4916 20.7259 16.0062 20.544 15.563H22.6347V21.2941C22.6347 22.0348 22.0323 22.6347 21.2931 22.6347H12.7049C11.9647 22.6347 11.3634 22.0348 11.3634 21.2941V15.563H13.453C13.2726 16.0062 13.1714 16.4916 13.1714 16.9993C13.1714 19.1097 14.8883 20.8281 16.9998 20.8281Z" fill="#212121"/>
<mask id="mask0" mask-type="alpha" maskUnits="userSpaceOnUse" x="10" y="10" width="14" height="14">
<path fill-rule="evenodd" clip-rule="evenodd" d="M23.9995 21.2941V15.563V12.7054C23.9995 11.2131 22.7859 10 21.2936 10H12.7054C11.2131 10 10 11.2131 10 12.7054V15.563V21.2941C10 22.7869 11.2131 24 12.7054 24H21.2941C22.7859 24 23.9995 22.7869 23.9995 21.2941ZM19.4642 16.9993C19.4642 18.3582 18.3572 19.4632 16.9993 19.4632C15.6409 19.4632 14.5348 18.3577 14.5363 16.9988C14.5368 16.4623 14.7108 15.9671 15.0023 15.5625C15.451 14.9418 16.1783 14.5353 17.0007 14.5353C17.8227 14.5353 18.5505 14.9423 18.9982 15.563C19.2887 15.9676 19.4642 16.4628 19.4642 16.9993ZM22.3798 13.986V11.9207V11.6133L22.071 11.6143L20.0066 11.6207L20.0145 13.994L22.3798 13.986ZM16.9998 20.8281C19.1112 20.8281 20.8286 19.1097 20.8286 16.9993C20.8286 16.4916 20.7259 16.0062 20.544 15.563H22.6347V21.2941C22.6347 22.0348 22.0323 22.6347 21.2931 22.6347H12.7049C11.9647 22.6347 11.3634 22.0348 11.3634 21.2941V15.563H13.453C13.2726 16.0062 13.1714 16.4916 13.1714 16.9993C13.1714 19.1097 14.8883 20.8281 16.9998 20.8281Z" fill="white"/>
</mask>
<g mask="url(#mask0)">
<rect x="5" y="5" width="24" height="24" fill="#212121"/>
</g>
</svg>
